<?xml version="1.0" encoding="UTF-8" standalone="no"?>
<!-- Created with Inkscape (http://www.inkscape.org/) -->

<svg
   width="512"
   height="512"
   viewBox="0 0 512 512"
   version="1.1"
   id="svg1"
   xml:space="preserve"
   inkscape:version="1.3.2 (091e20e, 2023-11-25, custom)"
   sodipodi:docname="Courier-Simplified.svg"
   inkscape:export-filename="Courier.png"
   inkscape:export-xdpi="96"
   inkscape:export-ydpi="96"
   xmlns:inkscape="http://www.inkscape.org/namespaces/inkscape"
   xmlns:sodipodi="http://sodipodi.sourceforge.net/DTD/sodipodi-0.dtd"
   xmlns="http://www.w3.org/2000/svg"
   xmlns:svg="http://www.w3.org/2000/svg"><sodipodi:namedview
     id="namedview1"
     pagecolor="#ffffff"
     bordercolor="#999999"
     borderopacity="1"
     inkscape:showpageshadow="2"
     inkscape:pageopacity="0"
     inkscape:pagecheckerboard="0"
     inkscape:deskcolor="#d1d1d1"
     inkscape:document-units="px"
     inkscape:zoom="1.0730898"
     inkscape:cx="317.30803"
     inkscape:cy="272.57738"
     inkscape:window-width="1920"
     inkscape:window-height="991"
     inkscape:window-x="-9"
     inkscape:window-y="-9"
     inkscape:window-maximized="1"
     inkscape:current-layer="layer3"
     inkscape:export-bgcolor="#ffffffff" /><defs
     id="defs1" /><g
     inkscape:groupmode="layer"
     id="layer3"
     inkscape:label="Camada 2"
     style="display:inline"><path
       style="fill:none;fill-opacity:0.439024;stroke:#000000;stroke-width:3.6;stroke-dasharray:none;stroke-opacity:1"
       d="m 424.94114,457.32427 c 0,0 10.01781,-7.22214 12.5805,-13.04644 2.56269,-5.8243 5.8243,-15.37616 6.98916,-19.33669 1.16486,-3.96052 3.96053,-3.72755 5.82431,-10.0178 1.86377,-6.29024 2.79566,-13.51238 3.02863,-18.40479 0.23297,-4.89242 -1.16486,-13.74536 -0.69891,-18.17183 0.46594,-4.42647 3.49458,-27.72368 2.56269,-31.68421 -0.93189,-3.96052 -11.64861,-10.0178 -16.54102,-12.34752 -4.89242,-2.32972 -14.2113,-5.59133 -18.63777,-8.387 -4.42647,-2.79566 -12.11455,-10.71671 -12.11455,-10.71671 0,0 5.35836,-0.23298 6.29025,-3.26161 0.93189,-3.02864 -4.89018,-29.9174 -8.61997,-34.71284 -1.6308,-2.09676 -4.1935,-1.39785 -7.45511,-4.19351 -3.26161,-2.79567 -27.02477,-29.35448 -27.95665,-37.27554 -0.93189,-7.92105 -0.93189,-17.00696 3.72755,-20.50154 4.65944,-3.49458 10.25077,-4.89242 10.25077,-4.89242 0,0 8.61997,4.65945 13.97833,4.89242 5.35836,0.23297 14.91022,-1.86378 14.91022,-1.86378 l -3.49459,-1.86378 c 0,0 4.89242,-1.16486 8.387,0 3.49458,1.16486 16.30805,12.5805 32.15015,12.11455 15.84211,-0.46594 17.00697,-10.25077 17.00697,-10.25077 0,0 26.55882,-8.15402 26.32585,-30.75232 -0.23297,-22.59829 -9.08592,-43.09984 -15.37616,-50.32198 -6.29025,-7.22213 -24.2291,-13.74535 -33.08204,-15.14318 -8.85294,-1.39784 -17.70588,-2.32973 -17.70588,-2.32973 0,0 -2.32973,-8.38699 -12.34753,-12.34751 -10.0178,-3.960534 -16.41727,-3.386505 -21.6664,-1.16487 -3.27303,-3.645263 -8.41499,-4.874488 -12.46401,-5.59133 l 3.37809,-17.239936 -10.25077,-6.989164 c 0,0 -11.18266,2.096749 -19.33669,5.824303 -8.15402,3.727554 -12.11455,7.68808 -12.11455,7.68808 0,0 -3.49458,-3.960526 -4.19349,-7.921052 -0.69892,-3.960526 -0.93189,-8.85294 -0.93189,-8.85294 0,0 -6.05728,4.659442 -9.08591,15.609132 -3.02864,10.949689 -3.26161,16.541017 -3.26161,16.541017 l -4.65945,5.12539 c -24.34484,-8.608591 -41.58083,-22.685535 -60.57275,-35.411762 0,0 4.88282,25.400657 13.37107,42.880582 10.67717,21.98761 22.30193,25.70487 22.30193,25.70487 l 7.42684,3.40293 c 0,0 -2.79566,11.18266 -1.86377,23.29721 0.93189,12.11455 5.59133,18.17183 5.59133,18.17183 l -2.79567,5.12539 c 0,0 -17.23993,-3.96053 -28.4226,-0.46595 -11.18266,3.49458 14.67725,7.45511 14.67725,7.45511 0,0 -11.41564,2.32972 -18.4048,5.12539 -6.98916,2.79566 -10.71672,4.89241 -10.71672,4.89241 0,0 -13.27941,-28.65557 -20.96749,-36.57662 -7.68808,-7.92105 -22.59829,-22.36533 -31.45123,-28.65557 -8.85294,-6.29025 -46.8274,-17.23994 -79.90944,-17.23994 -33.082041,0 -83.171047,11.18266 -82.472131,18.4048 0.698917,7.22213 30.75232,3.96052 30.75232,3.96052 0,0 -23.763156,10.94969 -36.809595,19.56966 -13.046438,8.61997 -20.035602,19.33669 -18.870741,23.53019 1.16486,4.19349 23.297212,2.32972 23.297212,2.32972 0,0 -6.52322,7.45511 -2.562694,11.18266 3.960526,3.72755 17.472909,-0.46595 17.472909,-0.46595 0,0 -6.057275,9.55186 0.698917,13.27942 6.756191,3.72755 23.763156,-4.65945 23.763156,-4.65945 0,0 -3.494582,9.31889 3.261609,12.11455 6.756192,2.79567 27.257738,-7.92105 27.257738,-7.92105 0,0 -2.32972,8.387 2.56269,9.78483 4.89242,1.39783 30.9853,-9.08591 30.9853,-9.08591 0,0 -8.61997,10.25077 -1.16487,14.91021 7.45511,4.65945 28.4226,-0.69891 28.4226,-0.69891 0,0 -13.27941,7.68808 -10.94969,11.41563 2.32972,3.72755 25.85991,-1.16486 25.85991,-1.16486 0,0 -10.94969,8.15402 -7.45511,12.81347 3.49458,4.65944 37.04257,-2.32972 37.04257,-2.32972 0,0 -13.51239,7.68808 -8.85294,10.25077 4.65944,2.56269 19.80263,-1.63081 19.80263,-1.63081 0,0 -19.80263,8.387 -31.68421,15.84211 -11.88158,7.45511 -19.80263,19.56966 -19.80263,19.56966 0,0 -4.1935,-1.39784 -10.94969,2.56269 -6.75619,3.96053 -9.08592,9.55186 -13.97833,8.387 -6.29707,-1.49931 -8.39714,-10.75918 -13.27941,-17.23994 -4.41985,-5.86693 -11.06485,-9.90052 -22.83127,-12.5805 2.79567,3.72756 4.65944,10.48375 1.86378,19.80263 -3.49458,11.64861 -9.08591,12.11455 -9.08591,12.11455 0,0 2.09675,18.87075 12.58049,23.76316 10.48375,4.89241 23.29721,3.26161 29.58746,-0.23297 6.29025,-3.49458 10.25078,-14.44427 13.04644,-18.4048 2.79567,-3.96053 9.78483,-6.52322 9.78483,-6.52322 0,0 -0.23297,18.4048 0,25.85991 0.23297,7.4551 1.16486,19.80263 1.16486,19.80263 0,0 -17.70588,-0.23297 -19.80263,3.26161 -4.72358,7.87263 10.71672,28.18962 10.71672,28.18962 0,0 -13.74536,10.94969 -13.04644,20.03561 0.69892,9.08591 11.88158,20.73451 11.88158,20.73451 0,0 -4.1935,15.37616 5.35836,24.92802 9.55185,9.55186 15.60913,10.48375 23.29721,10.48375 4.8052,0 9.1501,-2.95899 11.41563,-6.7562 1.71537,-2.8751 2.6973,-14.26661 -0.4077,-20.26857 -0.72081,-1.39332 -3.7858,-2.79567 -3.7858,-2.79567 0,0 0.69892,-6.98916 0.23298,-14.21129 -0.46595,-7.22214 -2.79567,-16.54103 -2.79567,-16.54103 0,0 3.49458,3.02864 14.2113,2.32973 10.71672,-0.69892 13.27941,-2.09675 13.27941,-2.09675 0,0 12.81347,6.98916 22.36532,3.49458 9.55186,-3.49458 15.37616,-11.41564 15.37616,-11.41564 0,0 23.53019,0 35.64474,-2.32972 12.11455,-2.32972 25.8599,-9.31888 34.47987,-11.88157 8.61997,-2.5627 19.10371,-3.02864 19.10371,-3.02864 0,0 2.79567,0 1.39784,3.49458 -1.39784,3.49458 -4.1935,11.64861 -9.08592,15.8421 -4.89241,4.1935 -8.15402,7.45511 -8.15402,7.45511 0,0 -2.79567,-1.86378 -9.78483,-2.32972 -6.98916,-0.46594 -9.78483,0 -9.78483,0 0,0 -12.11455,8.85294 -10.94969,25.62693 1.16486,16.774 3.26161,23.29722 5.59133,28.65557 2.32972,5.35836 14.2113,14.67725 14.2113,14.67725 0,0 10.71672,-3.72756 17.93886,-7.45511 7.22213,-3.72755 14.2113,-9.08591 14.2113,-9.08591 0,0 6.29024,0.46594 8.61996,-1.39784 2.32972,-1.86377 7.92106,-13.27941 9.55186,-23.76315 1.63081,-10.48375 0.93189,-20.0356 3.96053,-29.58746 3.02863,-9.55186 7.92105,-17.23994 8.38699,-22.83127 0.46595,-5.59133 -1.39783,-15.60913 -1.39783,-15.60913 0,0 5.59133,2.56269 10.71672,2.56269 5.12538,0 18.87074,-3.49458 23.76315,-0.46594 4.89242,3.02864 4.42647,4.89241 -2.56269,18.17182 -6.98916,13.27941 -14.2113,16.774 -14.2113,16.774 0,0 -3.72755,0.46594 -9.55186,7.22213 -5.8243,6.75619 -6.98916,9.55186 -6.98916,9.55186 0,0 6.29025,16.30805 12.81347,23.99613 6.52322,7.68808 21.6664,22.13235 21.6664,22.13235 z"
       id="path5590"
       sodipodi:nodetypes="csssssssscssssscsccsscssscsccccscscscccsccsccscscsssscsscscscscscscscscscscssscscssscscscscsssscscscscsscsscscsscscsssscssscscsc" /><path
       style="fill:none;fill-opacity:0.439024;stroke:#000000;stroke-width:3.6;stroke-dasharray:none;stroke-opacity:1"
       d="m 171.35099,408.51661 c 0,0 -4.30998,9.31888 -4.42647,15.25967"
       id="path5591" /><path
       style="fill:none;fill-opacity:0.439024;stroke:#000000;stroke-width:3.6;stroke-dasharray:none;stroke-opacity:1"
       d="m 202.80223,429.01816 c 0,0 1.86378,10.0178 -6.40673,8.73645 -8.27051,-1.28135 -15.60914,-5.47484 -19.2202,-12.58049 -3.61107,-7.10565 -5.70782,-16.65751 -5.70782,-16.65751"
       id="path5592" /><path
       style="fill:none;fill-opacity:0.439024;stroke:#000000;stroke-width:3.6;stroke-dasharray:none;stroke-opacity:1"
       d="m 167.73993,382.42373 c 0,0 3.14512,3.02864 3.84404,6.17376 0.69891,3.14513 -0.46595,22.83127 -0.46595,22.83127"
       id="path5593" /><path
       style="fill:none;fill-opacity:0.439024;stroke:#000000;stroke-width:3.6;stroke-dasharray:none;stroke-opacity:1"
       d="m 324.06422,363.4365 c 0,0 9.08591,0.93189 17.47291,4.1935 8.38699,3.26161 14.67724,6.52322 14.67724,6.52322"
       id="path5594" /><path
       style="fill:none;fill-opacity:0.439024;stroke:#000000;stroke-width:3.6;stroke-dasharray:none;stroke-opacity:1"
       d="m 359.01003,329.88852 c 0,0 3.72756,7.68808 7.92106,13.04644 4.19349,5.35836 11.6486,7.68808 16.07507,11.88158 4.42647,4.19349 7.45511,10.94969 7.92105,16.77399"
       id="path5595" /><path
       style="fill:none;fill-opacity:0.439024;stroke:#000000;stroke-width:3.6;stroke-dasharray:none;stroke-opacity:1"
       d="m 387.19966,356.91329 c 0,0 9.31889,-3.96053 14.67724,-18.63777 5.35836,-14.67725 4.1935,-28.4226 4.1935,-28.4226"
       id="path5596" /><path
       style="fill:none;fill-opacity:0.439024;stroke:#000000;stroke-width:3.6;stroke-dasharray:none;stroke-opacity:1"
       d="m 357.37923,305.65942 c 0,0 9.08591,34.2469 17.70588,42.86687"
       id="path5597" /><path
       style="fill:none;fill-opacity:0.439024;stroke:#000000;stroke-width:3.6;stroke-dasharray:none;stroke-opacity:1"
       d="m 264.8893,391.8591 c 0,0 4.1935,-5.12538 1.6308,-13.51238"
       id="path5598" /><path
       style="fill:none;fill-opacity:0.439024;stroke:#000000;stroke-width:3.6;stroke-dasharray:none;stroke-opacity:1"
       d="m 177.09138,351.2175 c 0,0 1.64736,26.19305 14.16731,29.48778 12.51995,3.29472 25.36937,-1.48263 34.26512,-7.24839 8.89575,-5.76577 19.76834,-11.3668 23.88674,-19.93308 4.11841,-8.56628 6.25998,-19.27413 2.30631,-34.92407 -3.95367,-15.64993 -3.29472,-33.93565 -2.14157,-41.51351 1.15315,-7.57786 4.28314,-18.94466 4.28314,-18.94466"
       id="path5599" /><path
       style="fill:none;fill-opacity:0.439024;stroke:#000000;stroke-width:3.6;stroke-dasharray:none;stroke-opacity:1"
       d="m 176.2677,337.87387 c 0,0 -0.16474,19.1094 7.41312,19.60361 7.57787,0.49421 26.35779,-8.56628 34.10039,-13.01416 7.7426,-4.44788 20.09781,-13.34363 21.08623,-15.97941 0.98842,-2.63578 -3.95367,-30.31145 -3.12999,-38.87773 0.82368,-8.56628 1.64736,-29.32304 7.57787,-31.62935"
       id="path5600" /><path
       style="fill:none;fill-opacity:0.439024;stroke:#000000;stroke-width:3.6;stroke-dasharray:none;stroke-opacity:1"
       d="m 181.86873,292.07722 c -4.11841,5.9305 -4.77735,7.41313 -5.10683,14.49678 12.35522,3.78893 20.26255,0.98842 20.26255,0.98842 0,0 13.50837,-6.58945 17.62677,-16.80309 4.11841,-10.21364 13.01416,-27.51094 19.27413,-31.13513 6.25998,-3.6242 13.1789,-4.11841 20.75676,-1.48263 7.57786,2.63578 14.82626,11.861 14.82626,11.861 0,0 -5.27156,8.73102 2.80051,41.01931 8.07207,32.28829 10.70785,43.16087 7.41313,52.71557 -3.29473,9.5547 -8.73102,12.51995 -13.83784,15.4852 L 225.0296,399.4852"
       id="path5601" /><path
       style="fill:none;fill-opacity:0.439024;stroke:#000000;stroke-width:3.6;stroke-dasharray:none;stroke-opacity:1"
       d="m 188.29344,299.81982 0.98841,20.42728 2.96525,-0.98841 v 4.77735 l 11.53154,-4.94209 -0.82368,-4.1184 3.12998,-1.48263 -2.47104,-22.40412 z"
       id="path5602" /><path
       style="fill:none;fill-opacity:0.439024;stroke:#000000;stroke-width:3.6;stroke-dasharray:none;stroke-opacity:1"
       d="m 194.55341,305.91506 0.98842,4.77735 2.47104,-1.15316 -0.82368,-4.77734 z"
       id="path5603" /><path
       style="fill:none;fill-opacity:0.439024;stroke:#000000;stroke-width:3.6;stroke-dasharray:none;stroke-opacity:1"
       d="m 200.35602,398.61529 c -8.15402,-4.65944 -10.0178,-17.70588 -10.0178,-17.70588 0,0 3.26161,11.64861 16.30805,12.11455 13.04644,0.46595 27.25774,-8.15402 37.27554,-14.2113 10.0178,-6.05727 20.50154,-11.41563 23.06424,-20.96749 2.56269,-9.55185 -2.32972,-35.41176 -6.75619,-54.04953 -4.42647,-18.63777 -0.23298,-43.33281 -0.23298,-43.33281"
       id="path5604" /><path
       style="fill:none;fill-opacity:0.439024;stroke:#000000;stroke-width:3.6;stroke-dasharray:none;stroke-opacity:1"
       d="m 275.83899,325.46205 c 0,0 29.58746,-15.37616 71.52244,-18.87074 41.93498,-3.49458 59.87383,3.72755 59.87383,3.72755"
       id="path5605" /><path
       style="fill:none;fill-opacity:0.439024;stroke:#000000;stroke-width:3.6;stroke-dasharray:none;stroke-opacity:1"
       d="m 269.78171,292.14704 c 0,0 30.51935,-17.00697 72.92028,-20.03561 42.40092,-3.02863 63.83436,5.59134 63.83436,5.59134"
       id="path5606" /><path
       style="fill:none;fill-opacity:0.439024;stroke:#000000;stroke-width:3.6;stroke-dasharray:none;stroke-opacity:1"
       d="m 329.88852,274.20818 c 0,0 -20.96749,-6.05727 -20.96749,-30.75232 0,-24.69504 25.62693,-32.61609 32.6161,-34.01393 6.98916,-1.39783 23.53018,-4.89241 31.21826,6.98917"
       id="path5607" /><path
       style="fill:none;fill-opacity:0.439024;stroke:#000000;stroke-width:3.6;stroke-dasharray:none;stroke-opacity:1"
       d="m 269.31577,269.54874 c 0,0 5.12539,3.02864 11.18266,1.63081 6.05728,-1.39784 11.41563,-7.22214 10.94969,-12.11455 -0.46594,-4.89242 -10.48375,-15.60914 -14.91022,-22.83127 -4.42647,-7.22214 -14.44427,-23.29721 -16.07507,-30.98529"
       id="path5608" /><path
       style="fill:none;fill-opacity:0.439024;stroke:#000000;stroke-width:3.6;stroke-dasharray:none;stroke-opacity:1"
       d="m 249.04719,256.03636 c 0,0 -10.0178,-1.63081 -10.25077,-5.12539 -0.23297,-3.49458 18.17183,-10.71672 18.17183,-10.71672 0,0 -22.36533,2.79567 -25.16099,-6.29024"
       id="path5609" /><path
       style="fill:none;fill-opacity:0.439024;stroke:#000000;stroke-width:3.6;stroke-dasharray:none;stroke-opacity:1"
       d="m 95.751541,144.67569 c -12.11455,9.31888 -7.921052,19.10371 -7.921052,19.10371 0,0 16.308051,3.02864 26.791791,-9.31889 -4.1935,13.51239 -3.26161,20.03561 -3.26161,20.03561 0,0 17.00697,-3.26161 24.92802,-11.18266 -6.52322,12.11455 -5.8243,17.93885 -5.8243,17.93885 0,0 14.2113,1.6308 20.26857,-4.1935"
       id="path5610" /><path
       style="fill:none;fill-opacity:0.439024;stroke:#000000;stroke-width:3.6;stroke-dasharray:none;stroke-opacity:1"
       d="m 95.052624,163.7794 c -9.085912,7.68808 -8.85294,15.37616 -8.85294,15.37616 0,0 15.143186,1.16486 25.626936,-8.15402"
       id="path5611" /><path
       style="fill:none;fill-opacity:0.439024;stroke:#000000;stroke-width:3.6;stroke-dasharray:none;stroke-opacity:1"
       d="m 306.82428,184.74689 c -2.09675,11.41563 -6.29025,21.43343 -6.29025,21.43343 0,0 -6.98916,1.86378 -10.71671,6.7562 -3.72756,4.89241 -3.26161,15.37616 -3.26161,15.37616 l -9.31889,7.92105"
       id="path5612" /><path
       style="fill:none;fill-opacity:0.439024;stroke:#000000;stroke-width:3.6;stroke-dasharray:none;stroke-opacity:1"
       d="m 286.55571,228.77862 c 0,0 0.69891,-10.0178 11.41563,-14.44427 10.71672,-4.42647 24.9504,-3.66141 47.75928,-11.41563 20.60455,-7.00483 29.12152,-11.64861 29.12152,-11.64861 v -9.31888 c 0,0 -17.23994,8.15402 -31.68421,13.51238 -12.77003,4.73727 -23.06424,7.22213 -42.6339,10.94969"
       id="path5613"
       sodipodi:nodetypes="cssccsc" /><path
       style="fill:none;fill-opacity:0.439024;stroke:#000000;stroke-width:3.6;stroke-dasharray:none;stroke-opacity:1"
       d="m 385.56886,211.07274 c -18.63777,-18.63777 -7.76464,-42.01257 -1.63081,-52.18576 9.55186,-15.8421 27.02477,-38.4404 44.49767,-44.49767"
       id="path5614"
       sodipodi:nodetypes="csc" /><path
       style="fill:none;fill-opacity:0.439024;stroke:#000000;stroke-width:3.6;stroke-dasharray:none;stroke-opacity:1"
       d="m 412.36065,212.93652 c 0,0 -24.46207,-2.79567 -23.29721,-27.49071 1.16486,-24.69505 20.33082,-45.1743 33.54798,-56.61223 12.11455,-10.48375 21.43344,-12.11455 21.43344,-12.11455"
       id="path5615"
       sodipodi:nodetypes="cssc" /><path
       style="fill:none;fill-opacity:0.439024;stroke:#000000;stroke-width:3.6;stroke-dasharray:none;stroke-opacity:1"
       d="m 425.64006,203.15169 c 0,0 27.03036,-10.79646 36.8096,-1.63081 9.77924,9.16565 1.86377,16.54103 1.86377,16.54103"
       id="path5616"
       sodipodi:nodetypes="czc" /><path
       style="fill:none;fill-opacity:0.439024;stroke:#000000;stroke-width:3.6;stroke-dasharray:none;stroke-opacity:1"
       d="m 441.94811,146.30649 c 4.1935,3.96053 10.0178,2.09675 12.34752,-1.6308 2.32972,-3.72756 4.89242,-7.68808 2.09675,-10.01781 -2.79567,-2.32972 -7.45511,-0.46594 -11.18266,3.02864 -3.72756,3.49458 -4.89242,5.59133 -3.26161,8.61997 z"
       id="path5617" /><path
       style="fill:none;fill-opacity:0.439024;stroke:#000000;stroke-width:3.6;stroke-dasharray:none;stroke-opacity:1"
       d="m 434.493,144.67569 c -1.6308,7.4551 2.32972,10.25077 4.65944,11.88157 2.32972,1.63081 9.31889,2.32972 12.81347,-0.93188"
       id="path5618" /><path
       style="fill:none;fill-opacity:0.439024;stroke:#000000;stroke-width:3.6;stroke-dasharray:none;stroke-opacity:1"
       d="m 373.68728,71.172982 -0.34946,23.763157"
       id="path5619"
       sodipodi:nodetypes="cc" /><path
       style="fill:none;fill-opacity:0.439024;stroke:#000000;stroke-width:3.6;stroke-dasharray:none;stroke-opacity:1"
       d="m 346.31305,82.355644 c -13.86183,9.551856 -25.62693,23.879636 -25.62693,23.879636 0,0 5.45778,4.84631 7.68808,9.78483 3.26161,7.22214 -2.21324,17.47292 -2.21324,17.47292 0,0 9.2024,-14.44428 16.30805,-19.56966 3.49459,-9.31889 16.42454,-21.316953 38.32393,-18.171829 0,0 17.4729,3.611064 17.93884,16.191569 0.46678,12.60309 -14.10323,23.68921 -30.28638,27.95665 -15.03929,3.96582 -23.18072,1.28134 -23.18072,1.28134 0,0 -8.85199,-15.14709 -2.91215,-27.25774 0.23297,12.46401 18.63777,16.30805 26.32585,16.42454 7.68808,0.11648 26.20936,-4.65944 30.28637,-15.49265"
       id="path5620"
       sodipodi:nodetypes="cccsccssccsc" /><ellipse
       style="fill:none;fill-opacity:0.439024;stroke:#000000;stroke-width:3.6;stroke-dasharray:none;stroke-opacity:1"
       id="path5621"
       cx="371.94"
       cy="111.47716"
       rx="17.356422"
       ry="9.4353704" /><path
       style="fill:none;fill-opacity:0.439024;stroke:#000000;stroke-width:3.6;stroke-dasharray:none;stroke-opacity:1"
       d="m 346.76963,141.83784 c -20.09781,9.38996 -36.24196,28.66409 -40.19563,42.00772"
       id="path5622" /><path
       style="fill:none;fill-opacity:0.439024;stroke:#000000;stroke-width:3.6;stroke-dasharray:none;stroke-opacity:1"
       d="m 341.82754,131.78893 c -25.5341,12.02574 -27.51094,21.74518 -35.91248,50.90348"
       id="path5623" /><path
       style="fill:none;fill-opacity:0.439024;stroke:#000000;stroke-width:3.6;stroke-dasharray:none;stroke-opacity:1"
       d="m 327.00129,131.78893 c 0,0 -2.96525,2.14157 -8.07207,14.99099"
       id="path5624" /><path
       style="fill:none;fill-opacity:0.439024;stroke:#000000;stroke-width:3.6;stroke-dasharray:none;stroke-opacity:1"
       d="m 320.57658,142.49678 c -7.20357,-2.80164 -18.04961,-0.57385 -18.04961,-0.57385 l -7.81397,-3.70929"
       id="path5625"
       sodipodi:nodetypes="ccc" /><path
       style="fill:none;fill-opacity:0.439024;stroke:#000000;stroke-width:3.6;stroke-dasharray:none;stroke-opacity:1"
       d="m 261.10682,71.166023 c 0,0 6.84292,13.240169 21.08623,28.169885 13.67311,14.332042 21.90992,16.473622 30.14672,26.687262 9.86393,12.23129 -5.10682,14.82625 -5.10682,14.82625"
       id="path5626"
       sodipodi:nodetypes="cssc" /><path
       style="fill:none;fill-opacity:0.439024;stroke:#000000;stroke-width:3.6;stroke-dasharray:none;stroke-opacity:1"
       d="m 435.07543,115.78714 c -19.68614,-3.49458 -37.85797,-1.74729 -37.85797,-1.74729"
       id="path5627"
       sodipodi:nodetypes="cc" /><path
       style="fill:none;fill-opacity:0.439024;stroke:#000000;stroke-width:3.6;stroke-dasharray:none;stroke-opacity:1"
       d="m 338.86229,399.81467 c -3.12999,16.80309 1.48263,28.66409 5.9305,35.91249 4.44788,7.24839 10.70785,13.83783 17.2973,14.99099"
       id="path5628" /><path
       style="fill:none;fill-opacity:0.439024;stroke:#000000;stroke-width:3.6;stroke-dasharray:none;stroke-opacity:1"
       d="m 408.05148,394.87259 c 9.71943,19.10939 24.05148,28.00515 36.24196,31.4646"
       id="path5629" /><path
       style="fill:#c5c4c5;fill-opacity:1;stroke:#000000;stroke-width:1.6774;stroke-dasharray:none;stroke-opacity:1"
       d="m 443.40236,117.32876 c -8.37879,1.72567 -15.43035,7.24425 -21.8226,12.67781 -14.47305,13.01766 -27.91511,29.09023 -31.58352,48.73856 -2.00672,9.49631 -0.43024,20.61475 7.31405,27.21314 3.36382,2.61874 7.2877,5.55344 11.72232,5.53491 3.68995,-0.88007 7.74702,-1.04965 11.05889,1.1594 8.90104,5.35361 18.46347,11.09985 29.25345,10.66049 6.75221,0.31553 14.98229,-2.13921 17.25998,-9.25538 2.285,-7.21984 -4.33085,-14.71105 -11.37923,-15.61641 -9.53163,-1.46243 -18.98705,1.52251 -28.03947,4.15528 4.2449,-1.67543 9.42691,-3.09224 14.21767,-4.0124 5.4038,-0.67122 10.98649,-1.12474 16.29895,0.0828 5.2815,1.83364 9.13522,6.78211 10.02963,12.23923 1.64706,2.78989 4.78208,-0.22681 6.82419,-0.98561 10.06284,-5.11295 18.85074,-15.07195 18.68899,-26.88823 -0.38685,-16.78332 -4.47246,-33.85238 -13.53787,-48.11875 -5.66883,-8.134 -15.59967,-11.51189 -24.47481,-14.86563 -3.84215,-1.22035 -7.77725,-2.52817 -11.83062,-2.71922 z m 10.26989,16.28075 c 3.19617,-0.1394 4.8338,3.45291 3.38446,6.09004 -1.55299,4.56586 -5.34478,9.58274 -10.74401,8.69186 -3.16313,0.005 -6.33543,-3.21854 -4.67219,-6.38489 2.32217,-4.37912 6.98372,-8.06196 12.03174,-8.39701 z m -19.38492,12.68515 c -0.41338,4.33831 1.74301,8.84021 5.90894,10.52379 3.27333,1.62458 7.32326,0.54732 10.44825,-0.11376 -5.53876,2.84287 -13.51866,1.02903 -15.89125,-5.10536 -0.54821,-1.6694 -0.67144,-3.73917 -0.46594,-5.30467 z"
       id="path5637" /><path
       style="fill:#c5c4c5;fill-opacity:1;stroke:#000000;stroke-width:1.6774;stroke-dasharray:none;stroke-opacity:1"
       d="m 353.01646,208.09597 c -14.41413,0.70554 -29.82119,6.01731 -38.58858,18.08462 -4.62029,6.11174 -5.78857,14.00156 -5.00318,21.46032 0.65302,11.14176 8.49755,21.34247 18.6024,25.70883 8.95419,-0.79002 17.96716,-1.92224 26.96751,-1.92671 12.66904,-0.32608 25.35423,0.61617 37.80639,2.5449 2.71184,0.45661 3.63881,-3.09431 1.62171,-4.57481 -8.577,-9.77361 -17.41756,-19.48789 -23.52746,-31.07174 -1.77953,-4.86786 -1.1158,-10.24379 -0.92643,-15.32429 0.0597,-2.95661 3.39194,-6.18341 1.14242,-8.72817 -4.71827,-4.7812 -11.5708,-6.37351 -18.09478,-6.17295 z"
       id="path5638" /><path
       style="fill:#c5c4c5;fill-opacity:1;stroke:#000000;stroke-width:1.6774;stroke-dasharray:none;stroke-opacity:1"
       d="m 358.88536,306.42841 c -1.30949,2.86039 0.89987,6.02107 1.46918,8.91654 3.74559,11.22679 7.44385,22.65501 14.04804,32.58799 2.03202,3.13066 6.22819,4.14171 8.70096,6.95549 1.15098,1.50056 3.78039,3.31693 5.18545,1.11572 4.66609,-2.79871 8.1827,-7.38441 10.8514,-12.07087 4.9315,-9.8511 7.00518,-21.08406 6.65882,-32.0455 -1.01234,-3.44197 -5.49872,-2.95796 -8.2787,-3.78579 -12.46043,-2.34937 -25.27357,-2.37181 -37.85365,-1.97717 l -0.43433,0.16872 z"
       id="path5639" /><path
       style="fill:#c5c4c5;fill-opacity:1;stroke:#000000;stroke-width:1.6774;stroke-dasharray:none;stroke-opacity:1"
       d="m 318.65945,398.5161 c -6.33432,6.19355 -10.83483,14.777 -10.0852,23.83321 0.37623,10.09742 1.24332,20.53965 5.41756,29.86595 3.13132,5.84958 8.45492,10.161 13.62887,14.1294 3.23803,0.53623 6.22785,-1.95088 9.27266,-2.82503 7.33984,-3.12753 14.74708,-6.57735 20.96457,-11.62015 1.59134,-2.85921 -2.66706,-3.55567 -4.02149,-5.15178 -9.33301,-8.91457 -16.28966,-21.30163 -15.83159,-34.51978 -0.31078,-3.99742 0.57226,-8.20593 -0.49921,-12.05462 -5.11484,-2.45385 -11.14414,-1.45936 -16.65222,-2.04231 -0.79912,-0.18221 -1.46047,0.11176 -2.19395,0.38511 z"
       id="path5640" /><path
       style="fill:#c5c4c5;fill-opacity:1;stroke:#000000;stroke-width:1.6774;stroke-dasharray:none;stroke-opacity:1"
       d="m 406.25059,394.966 c -4.9114,1.89745 -8.29384,6.43876 -11.58349,10.37439 -1.77361,2.52699 -5.08687,5.58704 -2.86078,8.86493 4.13639,8.8367 8.23829,17.99596 15.33066,24.91982 5.51996,5.78791 10.97009,11.70688 17.02152,16.9378 2.88566,0.87411 4.77557,-2.57317 6.84564,-4.03296 4.13312,-3.38733 6.84428,-8.03656 8.50231,-13.06228 1.26036,-4.00528 3.42361,-7.91203 3.79581,-12.0745 -2.64774,-2.20106 -6.33591,-2.62109 -9.20513,-4.55661 -10.93531,-5.72554 -19.46193,-15.21591 -25.41034,-25.90359 -0.55187,-0.8007 -1.37291,-1.60762 -2.4362,-1.467 z"
       id="path5641" /><path
       style="fill:#c5c4c5;fill-opacity:1;stroke:#000000;stroke-width:1.6774;stroke-dasharray:none;stroke-opacity:1"
       d="m 170.67483,413.48456 c -2.61134,1.09082 -2.35928,4.71666 -3.16879,7.0357 -1.77453,8.91737 -2.68536,19.49018 3.80036,26.83717 6.25133,7.34656 15.75329,13.11448 25.7325,11.38196 6.54489,-0.57824 11.4735,-6.97249 11.08529,-13.4141 -0.0423,-4.34935 0.61474,-9.52186 -2.28513,-13.12379 -1.85548,-1.24223 -3.23966,0.83968 -3.25069,2.50627 -1.49097,4.27729 -6.60774,3.14374 -9.96229,2.28877 -7.47352,-1.80115 -13.85653,-7.18865 -16.7203,-14.34963 -1.53076,-2.77548 -1.82846,-6.17369 -3.6684,-8.74009 -0.42901,-0.37089 -1.01005,-0.50172 -1.56255,-0.42226 z"
       id="path5642" /><path
       style="fill:#c5c4c5;fill-opacity:1;stroke:#000000;stroke-width:1.6774;stroke-dasharray:none;stroke-opacity:1"
       d="m 167.22575,383.93987 c -4.96637,4.69495 -10.75445,9.90905 -11.92344,16.99241 -0.31926,7.46954 4.38286,14.03351 8.91391,19.5287 2.82422,1.60154 3.5893,-2.18645 4.09521,-4.13343 1.52003,-4.66575 3.48867,-9.30546 3.10327,-14.33416 -0.26882,-5.12011 0.93485,-10.53934 -0.76717,-15.46716 -0.72783,-1.32146 -1.57271,-3.21567 -3.42178,-2.58636 z"
       id="path5643" /><path
       style="fill:#c5c4c5;fill-opacity:1;stroke:#000000;stroke-width:1.6774;stroke-dasharray:none;stroke-opacity:1"
       d="m 263.132,79.21416 c -1.62753,2.394669 0.58879,5.304437 0.85387,7.861368 4.74356,16.488252 10.76648,33.637082 23.3452,45.871462 4.47869,3.99084 10.02871,6.95174 15.81844,8.47892 3.89318,0.24009 7.75395,-1.73634 10.73947,-4.08702 3.37868,-3.66104 0.41751,-9.0348 -2.39707,-12.09089 -7.66996,-8.52759 -17.86586,-14.23698 -25.74838,-22.56328 -7.48784,-6.998534 -13.80762,-15.072421 -20.01972,-23.181164 -0.68786,-0.830421 -1.70646,-0.751573 -2.59181,-0.289396 z"
       id="path5644" /><path
       style="fill:#c5c4c5;fill-opacity:1;stroke:#000000;stroke-width:1.6774;stroke-dasharray:none;stroke-opacity:1"
       d="m 284.59091,187.25771 c -3.28307,0.23256 -7.05841,-0.15912 -9.88675,1.77459 -1.69164,2.64466 2.13183,3.78111 4.06063,4.0934 3.22079,0.9179 6.79329,1.42329 9.85672,2.34974 0.11709,1.3565 -2.7311,0.98522 -3.73033,1.59331 -7.9816,1.87149 -15.85973,4.58811 -23.09699,8.3681 -1.73602,2.25621 1.02861,5.10236 1.71457,7.45325 3.84112,7.52802 7.75273,15.16834 12.61009,22.04737 2.65308,1.55752 4.58854,-2.44774 6.73598,-3.62626 2.1828,-1.55882 4.44437,-3.48858 3.64536,-6.48402 0.10343,-6.07805 2.13717,-12.8395 7.848,-15.88858 2.7997,-1.81657 7.07461,-2.3558 7.37306,-6.4225 1.15657,-3.96492 3.34976,-7.91669 3.09001,-12.12238 -1.61689,-2.86873 -5.72792,-2.10918 -8.50908,-2.71794 -3.89382,-0.32514 -7.80415,-0.4641 -11.71127,-0.41808 z"
       id="path5645" /><path
       style="fill:#c5c4c5;fill-opacity:1;stroke:#000000;stroke-width:1.6774;stroke-dasharray:none;stroke-opacity:1"
       d="m 126.09798,123.45702 c -21.47756,0.67758 -42.916501,3.89595 -63.646891,9.55368 -5.687589,1.93387 -12.369535,3.27814 -16.265046,8.17545 -0.391494,2.73479 3.427384,3.38281 5.524667,4.03829 7.857027,1.36832 15.885668,0.49716 23.809569,0.51054 -0.479899,1.6821 -3.81558,2.08045 -5.338342,3.28793 -13.357317,6.9826 -27.682188,12.91561 -38.871758,23.28545 -4.29984,4.30595 -9.02945,9.15836 -10.124277,15.35978 0.6818,3.68751 5.398122,2.9368 8.194976,3.22066 5.179616,0.10608 10.360675,0.0275 15.540879,0.0291 -2.255619,2.82817 -5.797677,7.21521 -3.096891,10.8323 3.809918,3.10597 9.240818,1.53521 13.633419,0.8063 1.282905,-0.12913 3.660876,-1.19985 4.248101,-0.90914 -2.452597,3.76023 -4.268059,9.77585 0.06279,12.93723 3.345401,1.95021 7.594896,0.87744 11.220883,0.32853 4.587365,-1.06168 8.902382,-3.00512 13.196598,-4.88968 -1.06977,3.84659 -2.089168,9.24664 1.954781,11.74961 4.510554,2.03834 9.682773,0.0551 14.143962,-1.28953 4.97327,-1.70711 9.70702,-4.01109 14.45428,-6.25112 -0.46319,3.05084 -1.79498,7.87099 1.68177,9.63832 5.41562,0.89243 10.71757,-1.62839 15.85756,-3.04163 4.87507,-1.5499 9.74445,-3.57462 14.51527,-5.11786 0.99668,1.45484 -1.47147,2.9182 -1.69269,4.47106 -1.70271,3.45794 -1.62079,8.95846 2.7447,10.32267 8.16024,2.49776 16.88589,0.72953 25.10548,-0.59608 2.60126,0.10118 -1.92403,2.25315 -2.69332,3.10311 -2.18306,1.99162 -6.09224,3.7893 -5.87205,7.21227 1.37728,2.87166 5.31458,1.48846 7.85196,1.68385 5.55062,-0.35332 11.09547,-0.96947 16.5546,-2.04786 0.48485,1.88004 -2.46984,2.88345 -3.38355,4.47652 -2.07667,2.07874 -4.80044,6.29493 -1.66448,8.65273 5.22507,2.0069 11.02946,0.49649 16.44208,0.19377 6.08666,-0.62323 12.07404,-1.89873 18.10877,-2.61995 0.40271,1.41572 -2.59392,1.84428 -3.38082,3.00315 -1.73228,1.62896 -5.35379,3.43514 -4.14527,6.29025 2.46969,2.36479 6.41136,0.79613 9.44538,0.82541 2.9512,-0.20124 6.24619,-1.15675 8.94122,-1.4124 0.73164,2.3861 3.4484,1.6906 4.76137,0.27757 2.1374,-1.50785 5.07636,-1.74241 6.9291,-3.55555 1.64205,-2.5766 -4.02409,-4.16326 -1.26224,-6.49228 2.36936,-2.79514 6.17384,-3.78284 8.69915,-6.25203 0.15119,-3.5268 -4.45782,-2.37875 -6.77895,-3.20245 -3.3975,-0.50636 -6.79254,-1.87957 -8.97215,-4.6458 2.12603,2.4286 5.67061,3.84157 9.00947,4.3018 4.59189,0.94364 9.39645,0.72775 13.97104,0.60336 -0.28125,1.37223 -2.87366,1.54931 -4.06245,2.42528 -4.11105,2.12907 -8.76091,3.76308 -12.04266,7.11293 -1.16052,3.08131 2.9903,4.15169 5.15633,4.87967 5.06321,2.08768 10.71865,2.84498 15.24876,6.1046 4.584,2.63112 7.36542,7.7396 12.35571,9.78665 7.3842,2.40024 16.99879,-1.63056 18.95446,-9.47269 0.28574,-5.65169 -4.33047,-9.97393 -7.19665,-14.38148 -8.96084,-12.07393 -16.88083,-24.88383 -22.70204,-38.73889 -3.95711,-10.60335 -9.60004,-20.5159 -15.20871,-30.31913 -5.64166,-9.08797 -14.0314,-15.99879 -21.55656,-23.45825 -7.90716,-7.32486 -15.99429,-15.04679 -26.4539,-18.51587 -21.33395,-7.45022 -43.86504,-11.63479 -66.45985,-12.25106 -1.81567,-0.0347 -3.63166,-0.0389 -5.44754,-0.0191 z m -31.653268,22.2634 c -3.599448,3.63845 -7.349274,8.60971 -6.984882,14.253 -0.989535,3.68417 3.029071,3.87249 5.600701,3.64399 7.631909,0.35214 15.233379,-2.76062 20.583449,-8.18588 1.48058,0.8696 -0.50533,3.13251 -0.38752,4.61908 -0.69107,4.01225 -2.04733,8.08727 -1.69921,12.17949 1.41887,2.87945 5.00509,0.56477 7.25101,0.16235 5.78042,-1.95314 11.59867,-4.32936 16.35561,-8.23447 1.08835,1.20933 -1.18209,3.25927 -1.43241,4.84782 -1.31112,3.71428 -3.35072,7.57232 -2.90579,11.57034 2.47274,1.72063 5.92864,0.54451 8.80045,0.49589 3.38599,-0.42636 6.68287,-1.46936 9.67989,-3.1059 -0.3076,1.11567 -2.85944,1.63999 -4.2229,2.20421 -4.69381,1.47083 -9.92558,1.47684 -14.66241,1.11564 -0.0695,-3.91882 1.47565,-7.57572 2.11587,-11.36376 -0.63497,-3.07326 -3.9589,-1.25916 -5.68325,-0.30396 -5.26507,2.27692 -10.51807,4.06754 -16.15607,5.02256 -2.92152,-1.67627 -5.7838,1.50467 -8.60689,2.15211 -5.013199,1.91895 -11.021666,2.58049 -15.949828,2.2334 0.156814,-4.53847 2.973433,-8.22492 4.940645,-12.07542 0.672916,-2.13886 -1.755604,-3.2175 -3.356253,-3.25068 -2.191126,-6.67113 1.536531,-14.02741 6.719788,-17.97981 z"
       id="path5646" /><path
       style="fill:#c5c4c5;fill-opacity:1;stroke:#000000;stroke-width:1.6774;stroke-dasharray:none;stroke-opacity:1"
       d="m 110.56438,159.07354 c -3.97794,1.57126 -7.80026,3.83523 -12.107268,4.60302 -5.030795,-0.10244 -7.824958,4.91535 -10.088785,8.67731 -1.281511,1.87111 -2.963132,5.92721 0.419531,6.62696 7.690132,-0.0803 15.588192,-2.46439 21.730092,-7.12018 1.44005,-3.26564 1.13411,-7.23634 2.10314,-10.74314 0.0774,-1.13312 -0.91964,-2.14096 -2.05671,-2.04397 z"
       id="path5647" /><path
       style="fill:#a83316;fill-opacity:1;stroke:#000000;stroke-width:1.6774;stroke-dasharray:none;stroke-opacity:1"
       d="m 356.98518,271.7192 c -17.64274,0.1767 -35.34104,2.3023 -52.3001,7.27953 -11.93796,3.30753 -23.73405,7.4778 -34.69679,13.26115 -1.75308,2.35195 0.0695,5.57568 0.18398,8.20173 1.62324,7.69002 3.20474,15.49831 5.60845,22.94234 2.06764,2.29389 5.12786,-0.99407 7.52794,-1.45377 22.93618,-9.4637 47.56595,-14.69576 72.22249,-16.04305 16.95745,-0.38232 34.23421,-0.96438 50.68213,3.94306 -0.0481,2.0622 0.15971,6.06038 3.24614,5.0453 2.66864,-0.28368 5.35179,-2.39131 4.61892,-5.33927 -1.35899,-10.10855 -3.70043,-20.15925 -7.17686,-29.752 -1.50615,-3.50831 -6.17463,-3.2659 -9.25903,-4.40569 -13.30836,-3.08044 -27.04204,-3.72949 -40.65727,-3.67933 z"
       id="path5648" /><path
       style="fill:#a83316;fill-opacity:1;stroke:#000000;stroke-width:1.6774;stroke-dasharray:none;stroke-opacity:1"
       d="m 426.69299,115.14647 c -13.62558,6.40419 -24.11146,17.84906 -33.0435,29.68275 -8.76403,12.13948 -17.92265,25.49405 -18.26042,41.03339 -0.2141,9.34616 3.52813,19.0445 10.71398,25.14916 5.58866,3.28712 12.39921,4.83604 18.78611,3.53098 2.4184,-1.50726 -0.009,-4.24635 -2.01757,-4.54205 -8.88101,-4.13948 -14.69458,-13.86565 -13.83454,-23.67488 0.0961,-11.96126 5.15213,-23.29599 11.54093,-33.18992 8.41703,-12.11564 18.87766,-23.04002 31.25677,-31.14041 1.86334,-1.58937 5.85694,-1.85521 5.52126,-4.90152 -2.3383,-2.23127 -6.24065,-1.20594 -9.22413,-2.07474 -0.48321,-0.15247 -0.95871,0.0928 -1.43889,0.12724 z"
       id="path5649" /><path
       style="fill:#a83316;fill-opacity:1;stroke:#000000;stroke-width:1.6774;stroke-dasharray:none;stroke-opacity:1"
       d="m 372.13383,183.53653 c -17.3563,7.43554 -34.72664,15.31519 -53.34636,19.22615 -6.88932,1.84576 -14.06385,2.56227 -20.87073,4.65349 -4.26725,1.75524 -8.60687,4.97016 -9.89586,9.57825 0.15398,2.70198 3.38644,1.98527 4.60939,0.47504 7.03334,-5.64855 16.54752,-5.84811 24.9752,-7.80315 19.37197,-3.17017 37.98422,-9.83347 55.86977,-17.77919 1.81809,-1.69456 1.14005,-4.77185 0.73623,-7.0465 -0.32994,-0.82097 -1.18723,-1.38391 -2.07764,-1.30409 z"
       id="path5650" /><path
       style="fill:#a83316;fill-opacity:1;stroke:#000000;stroke-width:1.6774;stroke-dasharray:none;stroke-opacity:1"
       d="m 340.16295,133.13538 c -5.21965,1.87989 -10.07929,4.9877 -14.3387,8.56081 -5.54755,4.70725 -9.92294,10.72509 -12.32295,17.62216 -1.08183,3.06488 -2.74531,6.07838 -3.06595,9.33071 0.85973,2.7538 3.87423,1.03734 4.67611,-0.80105 7.73114,-10.30626 17.87662,-18.61505 28.97198,-25.02063 1.40218,-2.90644 -1.31364,-5.90175 -2.13497,-8.63908 -0.33945,-0.65936 -1.04054,-1.09093 -1.78552,-1.05292 z"
       id="path5651" /><path
       style="fill:#a83316;fill-opacity:1;stroke:#000000;stroke-width:1.6774;stroke-dasharray:none;stroke-opacity:1"
       d="m 255.55585,259.02677 c -2.82025,0.78829 -2.52438,4.61125 -3.48675,6.86645 -3.47173,12.45852 -3.61666,25.59366 -2.55116,38.39698 0.94917,10.61148 4.67622,20.90004 4.35509,31.56221 -0.66627,8.31847 -2.54544,17.96857 -9.23411,23.91478 -7.15136,7.16303 -16.11957,12.11354 -24.93347,17.01243 -7.07217,3.92931 -15.20764,5.19598 -23.21076,4.92244 -1.87485,-0.24714 -5.34317,0.31513 -4.19805,2.98678 4.11971,6.89381 12.94295,9.40644 20.49386,7.70171 15.0049,-2.56544 27.53573,-11.86189 40.30368,-19.51048 6.84247,-4.1362 14.17655,-10.33197 14.23507,-19.01902 0.50612,-18.71338 -4.77398,-36.96406 -8.16233,-55.13892 -1.33268,-9.9205 -0.88116,-20.13309 -0.37403,-30.20174 0.0758,-2.99938 2.03511,-7.68943 -1.7573,-9.20877 -0.46537,-0.19811 -0.97107,-0.32158 -1.47974,-0.28485 z"
       id="path5652" /><path
       style="fill:#9e904e;fill-opacity:1;stroke:#000000;stroke-width:1.6774;stroke-dasharray:none;stroke-opacity:1"
       d="m 371.94909,102.38579 c -6.10224,0.03 -13.66379,1.25416 -16.79129,7.18755 -1.81538,4.48861 3.03948,7.88527 6.63698,9.33344 7.57825,2.91791 16.77523,2.51382 23.73676,-1.821 3.41329,-1.93734 4.84145,-7.05576 1.57257,-9.83306 -3.97091,-3.80756 -9.82161,-4.99001 -15.15502,-4.86693 z"
       id="path5653" /><path
       style="fill:#9e904e;fill-opacity:1;stroke:#000000;stroke-width:1.6774;stroke-dasharray:none;stroke-opacity:1"
       d="m 453.47113,133.79334 c -4.99944,0.6163 -9.33497,4.36272 -11.78876,8.61269 -1.44347,4.0114 3.78615,6.73967 7.17664,5.73967 4.75811,-1.13907 7.50285,-6.21271 8.48437,-10.65211 0.41761,-2.27496 -1.76654,-3.87297 -3.87225,-3.70025 z"
       id="path5654" /><path
       style="fill:#9e904e;fill-opacity:1;stroke:#000000;stroke-width:1.6774;stroke-dasharray:none;stroke-opacity:1"
       d="m 202.78039,304.86859 c -2.45945,0.32897 -4.75384,2.37404 -4.81961,4.85055 -1.10711,0.43827 -2.82112,2.09124 -2.99042,0.0746 -1.5429,-2.50181 -7.0642,-0.98843 -5.87708,2.27876 0.53577,2.40456 -0.92839,6.545 2.42709,7.16936 1.93488,-0.88422 0.34686,2.31067 1.90165,2.89493 2.52552,1.2072 5.15385,-1.44996 7.63517,-2.01387 2.81712,-0.43284 2.45834,-3.24687 1.72138,-5.26203 2.75907,-0.6201 3.36597,-3.56111 2.70102,-5.94989 -0.21267,-1.65496 -0.38029,-4.2529 -2.6992,-4.04243 z"
       id="path5655" /><path
       style="fill:#9e904e;fill-opacity:1;stroke:#000000;stroke-width:1.6774;stroke-dasharray:none;stroke-opacity:1"
       d="m 201.09862,292.69489 c -4.04329,2.70232 -9.09743,4.28599 -12.36026,7.9802 -0.15111,2.01327 -0.16744,4.29551 0.47322,6.26659 -7.43534,27.7602 19.15726,24.80302 5.10082,-0.96738 1.32083,-0.56739 2.9968,-2.28676 3.90774,-0.52601 -3.73396,37.13852 14.7393,4.27115 6.16052,-3.42971 0.0401,-2.92559 -0.0517,-6.34231 -1.20713,-9.11165 -0.71039,-0.27687 -1.33273,-0.62587 -2.07491,-0.21204 z"
       id="path5656"
       sodipodi:nodetypes="cccccccc" /><path
       style="fill:#ab5d1a;fill-opacity:1;stroke:#000000;stroke-width:2.3722;stroke-dasharray:none;stroke-opacity:1"
       d="m 350.71171,306.7619 c -23.68058,1.35919 -47.14064,7.07782 -68.96654,16.31789 -2.43624,1.05471 -6.30659,2.80439 -4.66325,6.16498 2.27017,12.32609 7.27124,25.93665 1.29388,38.03966 -2.06357,4.96506 -6.5997,8.17915 -10.41334,11.55891 -0.64711,3.58364 -1.15306,7.8143 -0.27778,11.41149 4.99242,1.2313 10.48435,-0.22054 15.66281,-0.0978 13.32312,-0.37582 26.45046,-3.3365 38.67181,-8.65122 8.5621,-3.38071 17.42342,-6.26946 26.42955,-7.85425 2.97499,-3.30357 -3.71604,-4.16787 -5.80277,-5.27702 -5.483,-2.13527 -11.24731,-3.36488 -16.95882,-4.69498 5.15109,0.27393 11.44296,2.1389 16.61261,4.18919 4.6138,2.24927 10.22772,3.27073 13.95367,6.90218 -0.92994,7.48828 -5.25635,14.52042 -10.8614,19.56976 -3.05702,3.31553 -8.22718,5.92598 -6.96612,11.24053 -1.60309,16.49217 5.12083,34.37168 19.45043,43.43939 4.2799,2.05897 11.12695,1.8454 13.0296,-3.3565 6.60827,-11.06386 7.78537,-24.08028 8.94874,-36.59599 0.72485,-11.05404 5.15667,-21.14184 9.31252,-31.29075 3.3182,-7.92915 -0.74712,-16.87906 -6.37838,-22.61776 -6.72174,-5.57726 -15.43778,-9.27142 -19.59202,-17.45303 -0.99005,-1.77856 -3.20331,-5.08688 -3.25868,-6.15444 1.87723,2.2609 6.90098,13.37832 9.86873,14.43372 3.88534,-1.00664 -3.75963,-12.7568 -4.38918,-15.1638 -2.97534,-7.71581 -5.0562,-15.87045 -8.21461,-23.49568 -1.43975,-1.61101 -4.57021,-0.22565 -6.49141,-0.56446 z"
       id="path5657"
       sodipodi:nodetypes="sccccccccccccccccccccccccss" /><path
       style="fill:#ab5d1a;fill-opacity:1;stroke:#000000;stroke-width:2.3722;stroke-dasharray:none;stroke-opacity:1"
       d="m 264.94466,380.32175 c -11.65257,4.92457 -22.75488,11.10274 -34.13385,16.63192 -2.97606,3.09311 2.58941,4.16939 4.83012,4.75418 8.55138,2.52731 18.19045,0.45041 24.51995,-5.95238 4.11535,-3.32125 7.78112,-7.88371 7.05534,-13.51995 0.0113,-1.10514 -1.18393,-2.14642 -2.27156,-1.91377 z"
       id="path5658" /><path
       style="fill:#ab5d1a;fill-opacity:1;stroke:#000000;stroke-width:2.3722;stroke-dasharray:none;stroke-opacity:1"
       d="m 172.73102,351.73616 c -4.8389,0.54981 -10.15899,0.32588 -14.57014,2.50065 -3.35543,4.27954 -0.10661,10.14287 1.47876,14.52252 2.62701,6.77699 7.71099,12.09025 11.38224,18.21364 2.78912,9.12369 -1.3897,19.09124 2.41273,28.11703 2.35724,9.05972 7.90938,18.2369 17.42897,20.95376 3.36875,1.18248 9.21039,3.47745 10.9408,-1.19562 1.70479,-8.63239 0.95023,-17.66102 0.0454,-26.37447 -0.44395,-4.99293 -1.81921,-10.02309 -5.71211,-13.45308 -4.15818,-4.14032 -4.09125,-10.51551 -7.55084,-14.98841 -8.28705,-6.60755 -9.86971,-17.71081 -12.02681,-27.36816 -0.57284,-1.47328 -2.65412,-0.76151 -3.82904,-0.92786 z"
       id="path5659" /><path
       style="fill:#ab5d1a;fill-opacity:1;stroke:#000000;stroke-width:2.3722;stroke-dasharray:none;stroke-opacity:1"
       d="m 407.6242,316.96268 c -2.61711,2.73965 -1.40404,7.24324 -2.63578,10.5341 -2.05192,10.05344 -6.29904,19.81632 -13.46461,27.27285 -2.28836,3.21573 2.58867,4.29994 4.87773,4.55083 8.93163,1.34329 18.13654,-3.06927 26.87774,-0.20978 4.27006,1.40092 4.47567,6.52287 2.3445,9.79689 -3.83156,9.29747 -9.30154,17.88501 -16.55299,24.89552 -1.10077,3.33805 2.69565,6.18707 4.01801,9.11454 6.95292,10.04602 16.87423,18.45697 28.59202,22.24324 3.95033,-0.88877 5.8825,-5.47893 7.78507,-8.69369 5.05012,-13.06303 2.57771,-27.43562 3.68249,-41.04074 -0.0808,-9.60804 2.75459,-19.45908 1.63154,-29.14716 -3.49854,-5.72546 -10.32984,-8.44746 -16.03852,-11.52466 -9.44516,-4.44522 -19.82942,-7.8011 -27.05214,-15.75857 -1.23195,-0.93474 -2.26945,-2.58881 -4.06506,-2.03337 z"
       id="path5660" /><path
       style="fill:#ab5d1a;fill-opacity:1;stroke:#000000;stroke-width:2.3722;stroke-dasharray:none;stroke-opacity:1"
       d="m 373.48778,192.46718 c -16.06229,6.86417 -32.62434,12.93057 -49.69497,16.28135 -10.32626,2.7446 -22.1257,2.38392 -30.98843,9.05585 -3.12205,2.77956 -5.11203,6.67796 -6.34492,10.52509 -2.40812,3.44304 -7.84823,5.18212 -8.33848,9.68597 4.08806,6.66809 10.03753,12.43719 13.0695,19.74003 1.35228,9.21591 -9.77779,15.91974 -17.98842,13.435 -2.57828,-1.05952 -4.93785,0.96235 -4.61133,3.65638 -0.35693,5.27667 -0.96275,10.88488 0.50065,15.94852 3.83726,0.79895 7.40555,-2.69255 11.12743,-3.67713 13.55998,-5.88854 27.91059,-9.72418 42.32302,-12.70769 2.45524,-2.88282 -2.52217,-5.09398 -3.92922,-7.1583 -10.17558,-9.28279 -12.64596,-25.62785 -6.46203,-37.75933 8.40781,-15.06687 26.64983,-21.70104 43.16988,-21.64993 6.19584,-0.12516 12.31653,2.26646 16.54826,6.86229 3.42884,0.87971 6.46512,-2.61924 9.53154,-3.96397 2.31248,-3.21013 -2.18208,-6.46968 -3.04257,-9.53839 -1.92927,-2.66508 -1.28479,-7.15122 -4.29205,-8.77306 z"
       id="path5661" /><path
       style="fill:#ab5d1a;fill-opacity:1;stroke:#000000;stroke-width:2.3722;stroke-dasharray:none;stroke-opacity:1"
       d="m 399.63321,114.39768 c -2.63139,7.4302 -7.57568,13.97153 -14.32304,18.13514 -11.11326,7.40127 -24.54212,9.97069 -37.57143,9.82883 -8.00995,2.15165 -14.53115,7.95677 -20.777,13.17935 -9.77155,9.13132 -19.27463,20.26435 -21.06282,34.01737 -0.80552,4.72458 -3.15178,9.25988 -3.65954,14.02078 1.92576,3.34104 6.57682,0.42907 9.49454,0.3772 21.38751,-4.09739 41.86384,-12.05038 61.34716,-21.61143 3.85367,-2.30051 2.84358,-7.57456 4.80309,-11.11455 5.70597,-14.44398 15.33656,-27.05042 25.63112,-38.76335 5.11963,-5.90529 11.4045,-10.56846 17.54906,-15.30486 1.82847,-3.63041 -3.29321,-3.3259 -5.44659,-3.27027 -5.26627,0.22735 -10.93018,-0.73529 -15.98455,0.50579 z"
       id="path5662" /><path
       style="fill:#ab5d1a;fill-opacity:1;stroke:#000000;stroke-width:2.3722;stroke-dasharray:none;stroke-opacity:1"
       d="m 337.63192,119.93179 c -4.42316,2.20155 -6.40592,7.46498 -9.61133,11.05663 -1.92129,2.60774 -5.18826,5.20867 -4.79279,8.7619 2.46678,2.78953 5.57579,-1.44059 7.99485,-2.36036 3.0264,-2.28428 6.93089,-3.39882 9.63063,-5.97683 -0.59344,-3.61739 -0.27072,-7.58315 -1.63964,-10.92922 -0.44873,-0.42626 -0.97501,-0.5778 -1.58172,-0.55212 z"
       id="path5663" /><path
       style="fill:#3d231e;fill-opacity:1;stroke:#000000;stroke-width:2.3722;stroke-dasharray:none;stroke-opacity:1"
       d="m 246.00643,256.84685 c -5.17817,0.1024 -6.00497,6.64835 -7.25611,10.49807 -3.88432,16.67979 -2.6637,33.91971 -0.43267,50.73439 -0.0771,3.75715 1.6438,7.90162 0.0582,11.40847 -9.55905,9.44315 -21.69699,15.88562 -33.73487,21.63577 -7.10325,2.82336 -14.46758,7.01553 -22.31403,6.21622 -1.88103,-1.87507 -5.41176,-0.25204 -3.9043,2.50243 2.03363,8.29853 5.09834,18.96181 14.69323,21.06514 13.66325,2.42674 27.23034,-3.59245 38.18118,-11.32476 8.63991,-5.48622 18.04543,-12.06887 20.35823,-22.74293 4.81466,-13.99739 -1.06797,-28.31971 -2.46838,-42.33305 -1.61118,-14.9526 -0.0727,-30.14196 4.07182,-44.68678 -0.0156,-3.25629 -4.99663,-2.74318 -7.25225,-2.97297 z"
       id="path5664" /><path
       style="fill:#3d231e;fill-opacity:1;stroke:#000000;stroke-width:2.3722;stroke-dasharray:none;stroke-opacity:1"
       d="m 267.19434,77.634492 c -1.67691,2.942255 2.40727,5.351233 3.53243,7.815596 9.89553,13.551126 23.06398,24.247212 35.93451,34.697752 4.23646,3.9447 9.99744,8.88762 8.81491,15.27301 -1.77655,1.83857 -3.73049,5.91016 0.5091,5.83213 2.66455,1.15059 5.29716,0.11667 6.28112,-2.6275 2.85278,-4.79467 6.36663,-9.38727 6.81318,-15.17793 1.003,-8.06616 -5.4254,-15.15769 -12.04484,-18.83622 -17.14254,-6.863514 -32.32786,-17.607635 -47.94466,-27.348782 -0.67009,-0.388409 -1.26038,0.27101 -1.89575,0.371944 z"
       id="path5665" /><path
       style="fill:#3d231e;fill-opacity:1;stroke:#000000;stroke-width:2.3722;stroke-dasharray:none;stroke-opacity:1"
       d="m 334.94337,71.758044 c -4.00954,3.297025 -5.22249,9.027297 -6.80695,13.801802 -0.54384,3.446411 -2.55885,6.949673 -1.98841,10.441441 2.64455,3.076517 5.58609,-1.963371 7.63706,-3.393823 1.93867,-2.973611 7.2838,-4.543878 6.87902,-8.648648 -1.39574,-3.570136 -2.8425,-7.13502 -3.25611,-10.958816 -0.39881,-0.948013 -1.43624,-1.542376 -2.46461,-1.241956 z"
       id="path5666" /><path
       style="fill:#814418;fill-opacity:1;stroke:#000000;stroke-width:2.3722;stroke-dasharray:none;stroke-opacity:1"
       d="m 237.87645,258.24453 c -7.8957,2.68184 -12.01456,10.96889 -15.87386,17.79836 -4.92777,9.14341 -8.34471,19.47763 -16.31791,26.58002 -1.04378,3.54969 0.83398,7.43069 0.57658,10.96782 -2.42405,0.6866 -3.11937,3.44704 -2.49421,5.64479 -3.83933,1.64394 -7.65751,3.33921 -11.5341,4.89447 0.34308,-1.941 -1.14536,-4.17218 -3.29215,-3.58816 -0.65619,-3.74067 1.77505,-9.8274 -2.72716,-11.84685 -3.12799,-0.61592 -6.49273,-1.49401 -9.6139,-0.87001 -1.57889,4.52985 0.005,9.80561 -0.38664,14.61473 0.6753,10.2154 -0.63764,20.94671 2.83967,30.75206 1.32468,4.50536 6.52446,4.70423 10.20463,3.30759 15.78302,-4.5028 30.4894,-12.61125 43.51013,-22.52391 2.86445,-2.73433 7.88945,-5.23155 5.88459,-9.96412 -2.19054,-16.18126 -3.98971,-32.4505 -1.72934,-48.53642 0.27509,-5.34891 2.32182,-10.40269 3.15315,-15.59073 -0.16535,-1.01654 -1.20336,-1.7227 -2.19948,-1.63964 z"
       id="path5667" /><path
       style="fill:#814418;fill-opacity:1;stroke:#000000;stroke-width:2.3722;stroke-dasharray:none;stroke-opacity:1"
       d="m 226.77735,261.00257 c -10.17155,3.90691 -19.80663,9.32762 -29.14286,14.94466 -5.92445,4.59939 -12.24355,9.38314 -16.11712,15.89704 -1.48904,4.45434 -5.66003,9.11129 -3.76447,14.07465 2.66359,2.07823 6.85569,2.35259 9.99613,1.43887 1.75149,-3.17974 -1.6056,-8.48932 3.40089,-9.4366 4.19479,-2.37891 8.42893,-4.82229 12.63772,-7.06791 0.8789,2.89462 -0.33333,7.24866 2.58302,9.06049 3.9146,-0.30994 5.22841,-5.27312 7.3023,-7.99727 4.41307,-9.51671 8.94885,-18.66169 14.76462,-27.4313 1.03808,-1.39468 0.2791,-3.67707 -1.66023,-3.48263 z"
       id="path5668" /><path
       style="fill:#4d7d30;fill-opacity:1;stroke:#000000;stroke-width:2.3722;stroke-dasharray:none;stroke-opacity:1"
       d="m 261.96911,263.72458 c -3.91858,0.88295 -2.6639,6.23242 -3.08587,9.20688 0.16781,8.84634 -0.65259,17.82627 0.44101,26.58304 4.06421,18.33903 8.97944,37.04929 8.19827,55.82655 -1.3078,10.15817 -11.02584,16.05947 -19.04301,20.83756 -12.73092,7.34381 -25.68645,16.69589 -41.02134,16.93207 -3.40121,0.31102 -6.58173,-1.49038 -9.84427,-1.56499 -3.25954,2.37191 1.22038,5.57848 3.28057,7.05277 5.22645,3.02288 11.73961,2.09435 17.52638,1.81853 11.66079,-2.37385 21.80865,-9.18088 32.55856,-13.97684 8.45154,-4.76624 18.46258,-7.95351 24.85071,-15.61647 6.61187,-8.82994 5.30926,-20.43959 3.10158,-30.54482 -3.87513,-21.401 -12.31315,-42.4686 -10.94328,-64.19907 0.78317,-3.67247 0.92815,-7.9352 -2.57839,-10.31216 -0.93474,-0.93732 -2.00625,-2.07913 -3.44092,-2.04305 z"
       id="path5669" /><path
       style="fill:#555555;fill-opacity:1;stroke:#000000;stroke-width:2.3722;stroke-dasharray:none;stroke-opacity:1"
       d="m 342.14801,120.52638 c -2.76407,2.00715 -0.88593,6.24677 -0.78636,9.14157 1.09536,4.67007 2.33283,12.24655 8.5547,12.13385 13.75311,0.14638 28.04845,-3.45811 38.84298,-12.22136 1.51799,-2.90606 -2.62802,-3.5199 -4.46975,-2.30502 -12.45146,4.64047 -27.4702,4.20626 -37.98971,-4.64222 -1.13336,-1.00732 -2.44971,-2.54147 -4.15186,-2.10682 z"
       id="path5670" /><path
       style="fill:#555555;fill-opacity:1;stroke:#000000;stroke-width:2.3722;stroke-dasharray:none;stroke-opacity:1"
       d="m 373.27542,95.495495 c -12.12565,0.05033 -25.43813,6.294615 -30.16731,18.003865 -1.16886,7.00007 6.02336,11.95606 11.85457,13.88674 13.26776,5.00574 29.30163,2.12916 39.98841,-7.15701 5.94371,-4.91231 3.66021,-14.23512 -2.01158,-18.31146 -5.33795,-4.744682 -12.67464,-6.465769 -19.66409,-6.422135 z m -1.30373,6.566285 c 6.64655,-0.0262 15.60028,1.80341 17.48133,9.18919 -0.64546,6.49534 -8.5311,8.80257 -14.04375,9.5637 -7.27566,0.65785 -16.49385,-0.45106 -20.56242,-7.31789 -1.85275,-5.83736 4.98912,-9.72291 9.87902,-10.66666 2.37266,-0.54844 4.81359,-0.76608 7.24582,-0.76834 z"
       id="path5671" /><path
       style="fill:#555555;fill-opacity:1;stroke:#000000;stroke-width:2.3722;stroke-dasharray:none;stroke-opacity:1"
       d="m 398.69755,99.970399 c -2.81137,-0.48724 -4.00769,2.660611 -2.25066,4.654041 1.66682,2.42299 1.68167,5.71279 3.41411,7.94956 6.02952,1.93824 12.70392,0.65661 18.97516,1.28901 2.20749,0.31961 7.40499,0.85345 6.14196,-2.96468 -3.91617,-6.82027 -12.37275,-9.59335 -19.76319,-10.57014 -2.16318,-0.23056 -4.34019,-0.409152 -6.51738,-0.357791 z"
       id="path5672" /><path
       style="fill:#171717;fill-opacity:1;stroke:#000000;stroke-width:2.3722;stroke-dasharray:none;stroke-opacity:1"
       d="m 371.26255,72.267696 c -11.85053,2.509321 -23.41289,7.522739 -32.20335,16.036036 -6.05098,5.206711 -12.10807,10.65913 -17.07759,16.843258 0.0335,3.61672 4.31484,6.09492 5.74297,9.50037 2.07521,2.38462 0.98423,6.06575 2.93565,8.28314 3.57312,1.04577 5.50777,-3.73967 7.91635,-5.58044 5.05901,-5.31649 7.9964,-12.62799 14.71042,-16.27928 5.69851,-3.975932 12.7055,-5.160929 19.24022,-6.702113 2.08555,-2.850757 0.34807,-7.386985 0.91808,-10.871884 -0.65241,-3.489144 1.38468,-8.410997 -1.16968,-11.001621 -0.355,0.06898 -0.6395,-0.451704 -1.01307,-0.227466 z"
       id="path5673" /><path
       style="fill:#171717;fill-opacity:1;stroke:#000000;stroke-width:2.3722;stroke-dasharray:none;stroke-opacity:1"
       d="m 122.1287,276.82111 c -3.66231,1.58569 0.12127,5.88223 -0.6538,8.70141 -0.0502,8.11841 -2.8597,16.67288 -9.24067,21.97684 -1.57845,3.94324 1.03713,8.24453 2.13771,12.05534 2.74893,7.64452 9.90536,13.44702 18.15702,13.69755 8.97174,0.88196 19.97531,0.49544 25.57271,-7.79794 4.88646,-6.3261 7.15443,-15.15618 15.04325,-18.65269 4.10577,-1.79021 4.43299,-6.68323 5.00823,-10.49531 -1.50504,-3.77579 -6.31587,-0.96584 -8.74646,0.27027 -5.2649,2.11969 -8.45622,8.25038 -14.29858,8.87516 -6.02548,-1.07873 -8.32573,-7.95277 -11.31646,-12.49105 -4.26936,-8.23861 -12.39694,-13.98121 -21.27942,-16.18077 z"
       id="path5674" /><path
       style="fill:#171717;fill-opacity:1;stroke:#000000;stroke-width:2.3722;stroke-dasharray:none;stroke-opacity:1"
       d="m 303.287,142.07336 c -2.29686,6.91227 -1.48627,14.53918 -1.90346,21.76317 0.1578,5.0355 0.73746,10.41211 2.92405,14.90864 4.22904,0.61138 3.39724,-5.91312 5.08895,-8.50292 2.3044,-8.53999 6.68444,-16.28188 9.76691,-24.49579 1.58471,-3.97348 -2.50709,-4.92492 -5.52124,-4.22651 -3.41101,0.29805 -7.13669,-0.64329 -10.35521,0.55341 z"
       id="path5675" /><path
       style="fill:#171717;fill-opacity:1;stroke:#000000;stroke-width:2.3722;stroke-dasharray:none;stroke-opacity:1"
       d="m 375.05792,73.906049 c -2.25869,3.03831 -0.73917,7.515177 -1.25998,11.097812 0.75652,3.141324 -1.76339,8.441961 1.80052,10.037323 3.02539,0.805816 5.96052,-1.143964 5.98326,-4.366795 0.57645,-4.069793 2.27102,-8.175622 1.852,-12.247105 -2.56289,-1.383248 -5.1504,-5.226037 -8.3758,-4.521235 z"
       id="path5676" /></g></svg>
